<svg xmlns="http://www.w3.org/2000/svg" width="32.48" height="28.149" viewBox="0 0 32.48 28.149">
  <g id="guarantee" transform="translate(0 0)">
    <path id="Path_209" data-name="Path 209" d="M165.869,183.439A14.09,14.09,0,0,0,151.8,197.513a1.083,1.083,0,0,0,1.083,1.083h25.984a1.083,1.083,0,0,0,1.083-1.083A14.091,14.091,0,0,0,165.869,183.439Z" transform="translate(-149.63 -170.447)" fill="#f2edec"/>
    <path id="Path_210" data-name="Path 210" d="M155.043,197.514a14.1,14.1,0,0,1,12.451-13.98,14.073,14.073,0,0,0-15.7,13.98,1.083,1.083,0,0,0,1.083,1.083h3.248A1.083,1.083,0,0,1,155.043,197.514Z" transform="translate(-149.63 -170.448)" fill="#e4dad8"/>
    <g id="Group_36" data-name="Group 36" transform="translate(0 8.662)">
      <ellipse id="Ellipse_24" data-name="Ellipse 24" cx="2.165" cy="2.165" rx="2.165" ry="2.165" transform="translate(14.075)" fill="#bfb4b2"/>
      <path id="Path_211" data-name="Path 211" d="M167.16,281.793H136.846a1.083,1.083,0,1,1,0-2.165H167.16a1.083,1.083,0,1,1,0,2.165Z" transform="translate(-135.763 -262.306)" fill="#655a58"/>
    </g>
    <g id="Group_37" data-name="Group 37" transform="translate(6.784 0)">
      <path id="Path_212" data-name="Path 212" d="M245.664,93.745a1.092,1.092,0,0,1-.833-1.774,4.927,4.927,0,0,0-.247-.588,3.053,3.053,0,0,1,.315-3.816A1.083,1.083,0,1,1,246.43,89.1c-.294.294-.317.444.116,1.367.34.726.908,1.94-.116,2.963A1.079,1.079,0,0,1,245.664,93.745Z" transform="translate(-236.208 -87.25)" fill="#f2edec"/>
      <path id="Path_213" data-name="Path 213" d="M305.724,133.824a1.092,1.092,0,0,1-.833-1.774,4.9,4.9,0,0,0-.247-.588,3.053,3.053,0,0,1,.314-3.816,1.083,1.083,0,0,1,1.531,1.531c-.294.294-.317.444.116,1.367.34.726.908,1.94-.116,2.963A1.079,1.079,0,0,1,305.724,133.824Z" transform="translate(-288.156 -121.915)" fill="#f2edec"/>
      <path id="Path_214" data-name="Path 214" d="M187.6,133.824a1.092,1.092,0,0,1-.833-1.774,4.924,4.924,0,0,0-.247-.588,3.053,3.053,0,0,1,.315-3.816,1.083,1.083,0,1,1,1.531,1.531c-.294.294-.316.444.116,1.367.34.726.908,1.94-.116,2.963A1.079,1.079,0,0,1,187.6,133.824Z" transform="translate(-185.987 -121.915)" fill="#f2edec"/>
    </g>
  </g>
</svg>
