<svg xmlns="http://www.w3.org/2000/svg" width="35.824" height="32.884" viewBox="0 0 35.824 32.884">
  <g id="sticker" transform="translate(0)">
    <path id="Path_217" data-name="Path 217" d="M83.073,58.3Zm22.055,22.055" transform="translate(-69.304 -58.297)" fill="#4e7693"/>
    <path id="Path_219" data-name="Path 219" d="M206.2,115.665h.466a2.366,2.366,0,0,0,0-4.731H206.2a2.366,2.366,0,1,0,0-4.731h-8.726l.789-2.085a10.194,10.194,0,0,0,.66-3.608v-.119a2.846,2.846,0,0,0-2.934-2.844,2.925,2.925,0,0,0-2.756,2.964c0,1.873-2.976,5.693-2.976,5.693v18.924h14.461a2.366,2.366,0,0,0,0-4.731h1.48a2.366,2.366,0,1,0,0-4.731Zm0,0" transform="translate(-180.117 -92.244)" fill="#2c5168"/>
    <path id="Path_220" data-name="Path 220" d="M115.148,161.648h8.765v18.924h-8.765Zm0,0" transform="translate(-115.148 -147.689)" fill="#b6bfc4"/>
    <path id="Path_221" data-name="Path 221" d="M139.415,262.682a1.514,1.514,0,1,1-1.514-1.514A1.514,1.514,0,0,1,139.415,262.682Zm0,0" transform="translate(-133.518 -233.767)" fill="#bbd8ef"/>
    <path id="Path_222" data-name="Path 222" d="M167.48,161.648h1.7v18.924h-1.7Zm0,0" transform="translate(-160.412 -147.689)" fill="#bbd8ef"/>
    <path id="Path_223" data-name="Path 223" d="M196,115.665h.466a2.366,2.366,0,0,0,0-4.731H196a2.366,2.366,0,1,0,0-4.731h-8.725l.789-2.085a10.182,10.182,0,0,0,.661-3.608v-.119a2.846,2.846,0,0,0-2.933-2.844,2.925,2.925,0,0,0-2.755,2.964c0,1.873-2.976,5.693-2.976,5.693v18.924h14.46a2.366,2.366,0,1,0,0-4.731H196a2.366,2.366,0,1,0,0-4.731Zm0,0" transform="translate(-171.292 -92.244)" fill="#d9d9d9"/>
    <g id="Group_38" data-name="Group 38" transform="translate(13.94 5.301)">
      <path id="Path_224" data-name="Path 224" d="M220.563,100.391v.119a10.182,10.182,0,0,1-.661,3.608l-.79,2.085H220.4l.789-2.085a10.181,10.181,0,0,0,.661-3.608v-.119a2.846,2.846,0,0,0-2.933-2.844,2.724,2.724,0,0,0-.558.075A2.844,2.844,0,0,1,220.563,100.391Zm0,0" transform="translate(-218.359 -97.545)" fill="#887f79"/>
      <path id="Path_225" data-name="Path 225" d="M283.046,266.734h-.636a2.365,2.365,0,1,1,0,4.731h.636a2.365,2.365,0,1,0,0-4.731Zm0,0" transform="translate(-273.759 -243.883)" fill="#887f79"/>
      <path id="Path_226" data-name="Path 226" d="M294,171.109h.466a2.366,2.366,0,1,0,0-4.731H294a2.366,2.366,0,1,0,0-4.731h-.636a2.366,2.366,0,0,1,0,4.731h.465a2.366,2.366,0,1,1,0,4.731h-.465a2.366,2.366,0,0,1,0,4.731H294a2.366,2.366,0,0,0,0-4.731Zm0,0" transform="translate(-283.236 -152.989)" fill="#887f79"/>
    </g>
    <path id="Path_227" data-name="Path 227" d="M134.591,262.682a1.514,1.514,0,1,1-1.514-1.514A1.514,1.514,0,0,1,134.591,262.682Zm0,0" transform="translate(-129.346 -233.767)" fill="#4e7693"/>
  </g>
</svg>
